<mxfile host="app.diagrams.net" agent="Mozilla/5.0 (Windows NT 10.0; Win64; x64) AppleWebKit/537.36 (KHTML, like Gecko) Chrome/128.0.0.0 Safari/537.36" version="24.7.13">
  <diagram name="Page-1" id="aBbp2uhSwkP93D7-DkRK">
    <mxGraphModel dx="864" dy="1034" grid="1" gridSize="10" guides="1" tooltips="1" connect="1" arrows="1" fold="1" page="1" pageScale="1" pageWidth="850" pageHeight="1100" math="0" shadow="0">
      <root>
        <mxCell id="0" />
        <mxCell id="1" parent="0" />
        <mxCell id="1vQTXEbns9AJPjR3mxmp-1" value="Start" style="ellipse;whiteSpace=wrap;html=1;" vertex="1" parent="1">
          <mxGeometry x="230" y="10" width="150" height="80" as="geometry" />
        </mxCell>
        <mxCell id="1vQTXEbns9AJPjR3mxmp-4" value="" style="edgeStyle=orthogonalEdgeStyle;rounded=0;orthogonalLoop=1;jettySize=auto;html=1;" edge="1" parent="1" source="1vQTXEbns9AJPjR3mxmp-2" target="1vQTXEbns9AJPjR3mxmp-3">
          <mxGeometry relative="1" as="geometry" />
        </mxCell>
        <mxCell id="1vQTXEbns9AJPjR3mxmp-2" value="Def Check Status" style="ellipse;whiteSpace=wrap;html=1;" vertex="1" parent="1">
          <mxGeometry x="580" y="50" width="150" height="80" as="geometry" />
        </mxCell>
        <mxCell id="1vQTXEbns9AJPjR3mxmp-10" value="" style="edgeStyle=orthogonalEdgeStyle;rounded=0;orthogonalLoop=1;jettySize=auto;html=1;" edge="1" parent="1" source="1vQTXEbns9AJPjR3mxmp-3" target="1vQTXEbns9AJPjR3mxmp-5">
          <mxGeometry relative="1" as="geometry" />
        </mxCell>
        <mxCell id="1vQTXEbns9AJPjR3mxmp-3" value="Take Input from parameters&amp;nbsp;&lt;div&gt;of temperature and pressure&lt;/div&gt;" style="shape=parallelogram;html=1;strokeWidth=2;perimeter=parallelogramPerimeter;whiteSpace=wrap;rounded=1;arcSize=12;size=0.23;" vertex="1" parent="1">
          <mxGeometry x="541" y="160" width="228" height="70" as="geometry" />
        </mxCell>
        <mxCell id="1vQTXEbns9AJPjR3mxmp-8" style="edgeStyle=orthogonalEdgeStyle;rounded=0;orthogonalLoop=1;jettySize=auto;html=1;entryX=0.5;entryY=0;entryDx=0;entryDy=0;" edge="1" parent="1" source="1vQTXEbns9AJPjR3mxmp-5" target="1vQTXEbns9AJPjR3mxmp-7">
          <mxGeometry relative="1" as="geometry" />
        </mxCell>
        <mxCell id="1vQTXEbns9AJPjR3mxmp-12" value="" style="edgeStyle=orthogonalEdgeStyle;rounded=0;orthogonalLoop=1;jettySize=auto;html=1;" edge="1" parent="1" source="1vQTXEbns9AJPjR3mxmp-5" target="1vQTXEbns9AJPjR3mxmp-11">
          <mxGeometry relative="1" as="geometry" />
        </mxCell>
        <mxCell id="1vQTXEbns9AJPjR3mxmp-5" value="Is both temp and pressure equal to critical temp and pressure?" style="rhombus;whiteSpace=wrap;html=1;" vertex="1" parent="1">
          <mxGeometry x="637" y="270" width="140" height="130" as="geometry" />
        </mxCell>
        <mxCell id="1vQTXEbns9AJPjR3mxmp-7" value="Print at critical point" style="shape=parallelogram;html=1;strokeWidth=2;perimeter=parallelogramPerimeter;whiteSpace=wrap;rounded=1;arcSize=12;size=0.23;" vertex="1" parent="1">
          <mxGeometry x="394" y="376" width="186" height="60" as="geometry" />
        </mxCell>
        <mxCell id="1vQTXEbns9AJPjR3mxmp-9" value="Yes" style="text;html=1;align=center;verticalAlign=middle;whiteSpace=wrap;rounded=0;" vertex="1" parent="1">
          <mxGeometry x="481" y="310" width="60" height="30" as="geometry" />
        </mxCell>
        <mxCell id="1vQTXEbns9AJPjR3mxmp-16" style="edgeStyle=orthogonalEdgeStyle;rounded=0;orthogonalLoop=1;jettySize=auto;html=1;entryX=1;entryY=0.25;entryDx=0;entryDy=0;" edge="1" parent="1" source="1vQTXEbns9AJPjR3mxmp-11" target="1vQTXEbns9AJPjR3mxmp-14">
          <mxGeometry relative="1" as="geometry" />
        </mxCell>
        <mxCell id="1vQTXEbns9AJPjR3mxmp-20" style="edgeStyle=orthogonalEdgeStyle;rounded=0;orthogonalLoop=1;jettySize=auto;html=1;entryX=0.5;entryY=0;entryDx=0;entryDy=0;" edge="1" parent="1" source="1vQTXEbns9AJPjR3mxmp-11" target="1vQTXEbns9AJPjR3mxmp-17">
          <mxGeometry relative="1" as="geometry" />
        </mxCell>
        <mxCell id="1vQTXEbns9AJPjR3mxmp-11" value="Is temp below&amp;nbsp;&lt;div&gt;critical temp?&lt;/div&gt;" style="rhombus;whiteSpace=wrap;html=1;" vertex="1" parent="1">
          <mxGeometry x="523" y="452" width="140" height="130" as="geometry" />
        </mxCell>
        <mxCell id="1vQTXEbns9AJPjR3mxmp-29" style="edgeStyle=orthogonalEdgeStyle;rounded=0;orthogonalLoop=1;jettySize=auto;html=1;" edge="1" parent="1" source="1vQTXEbns9AJPjR3mxmp-13" target="1vQTXEbns9AJPjR3mxmp-28">
          <mxGeometry relative="1" as="geometry" />
        </mxCell>
        <mxCell id="1vQTXEbns9AJPjR3mxmp-13" value="Print that it is below&amp;nbsp;&lt;div&gt;and how much to&amp;nbsp;&lt;/div&gt;&lt;div&gt;increase&amp;nbsp;&lt;span style=&quot;background-color: initial;&quot;&gt;it by&lt;/span&gt;&lt;/div&gt;" style="shape=parallelogram;html=1;strokeWidth=2;perimeter=parallelogramPerimeter;whiteSpace=wrap;rounded=1;arcSize=12;size=0.23;" vertex="1" parent="1">
          <mxGeometry x="86" y="640" width="186" height="60" as="geometry" />
        </mxCell>
        <mxCell id="1vQTXEbns9AJPjR3mxmp-15" value="" style="edgeStyle=orthogonalEdgeStyle;rounded=0;orthogonalLoop=1;jettySize=auto;html=1;" edge="1" parent="1" source="1vQTXEbns9AJPjR3mxmp-14" target="1vQTXEbns9AJPjR3mxmp-13">
          <mxGeometry relative="1" as="geometry" />
        </mxCell>
        <mxCell id="1vQTXEbns9AJPjR3mxmp-14" value="Calculate how much to increase it by" style="rounded=1;whiteSpace=wrap;html=1;absoluteArcSize=1;arcSize=14;strokeWidth=2;" vertex="1" parent="1">
          <mxGeometry x="102" y="507" width="154" height="75" as="geometry" />
        </mxCell>
        <mxCell id="1vQTXEbns9AJPjR3mxmp-22" style="edgeStyle=orthogonalEdgeStyle;rounded=0;orthogonalLoop=1;jettySize=auto;html=1;entryX=0.5;entryY=0;entryDx=0;entryDy=0;" edge="1" parent="1" source="1vQTXEbns9AJPjR3mxmp-17" target="1vQTXEbns9AJPjR3mxmp-21">
          <mxGeometry relative="1" as="geometry" />
        </mxCell>
        <mxCell id="1vQTXEbns9AJPjR3mxmp-24" style="edgeStyle=orthogonalEdgeStyle;rounded=0;orthogonalLoop=1;jettySize=auto;html=1;entryX=0.5;entryY=0;entryDx=0;entryDy=0;" edge="1" parent="1" source="1vQTXEbns9AJPjR3mxmp-17" target="1vQTXEbns9AJPjR3mxmp-23">
          <mxGeometry relative="1" as="geometry" />
        </mxCell>
        <mxCell id="1vQTXEbns9AJPjR3mxmp-17" value="Is temp below 95%&amp;nbsp;&lt;div&gt;of max spec?&lt;/div&gt;" style="rhombus;whiteSpace=wrap;html=1;" vertex="1" parent="1">
          <mxGeometry x="677" y="550" width="140" height="130" as="geometry" />
        </mxCell>
        <mxCell id="1vQTXEbns9AJPjR3mxmp-30" style="edgeStyle=orthogonalEdgeStyle;rounded=0;orthogonalLoop=1;jettySize=auto;html=1;" edge="1" parent="1" source="1vQTXEbns9AJPjR3mxmp-21" target="1vQTXEbns9AJPjR3mxmp-28">
          <mxGeometry relative="1" as="geometry" />
        </mxCell>
        <mxCell id="1vQTXEbns9AJPjR3mxmp-21" value="Print that it is good" style="shape=parallelogram;html=1;strokeWidth=2;perimeter=parallelogramPerimeter;whiteSpace=wrap;rounded=1;arcSize=12;size=0.23;" vertex="1" parent="1">
          <mxGeometry x="390" y="660" width="186" height="60" as="geometry" />
        </mxCell>
        <mxCell id="1vQTXEbns9AJPjR3mxmp-26" value="" style="edgeStyle=orthogonalEdgeStyle;rounded=0;orthogonalLoop=1;jettySize=auto;html=1;" edge="1" parent="1" source="1vQTXEbns9AJPjR3mxmp-23" target="1vQTXEbns9AJPjR3mxmp-25">
          <mxGeometry relative="1" as="geometry" />
        </mxCell>
        <mxCell id="1vQTXEbns9AJPjR3mxmp-23" value="Calculate how much to decrease it by" style="rounded=1;whiteSpace=wrap;html=1;absoluteArcSize=1;arcSize=14;strokeWidth=2;" vertex="1" parent="1">
          <mxGeometry x="630" y="730" width="154" height="75" as="geometry" />
        </mxCell>
        <mxCell id="1vQTXEbns9AJPjR3mxmp-32" style="edgeStyle=orthogonalEdgeStyle;rounded=0;orthogonalLoop=1;jettySize=auto;html=1;entryX=0.5;entryY=0;entryDx=0;entryDy=0;" edge="1" parent="1" source="1vQTXEbns9AJPjR3mxmp-25" target="1vQTXEbns9AJPjR3mxmp-28">
          <mxGeometry relative="1" as="geometry" />
        </mxCell>
        <mxCell id="1vQTXEbns9AJPjR3mxmp-25" value="Print that it is above&amp;nbsp;&lt;div&gt;and how much to&amp;nbsp;&lt;/div&gt;&lt;div&gt;decrease it by&lt;/div&gt;" style="shape=parallelogram;html=1;strokeWidth=2;perimeter=parallelogramPerimeter;whiteSpace=wrap;rounded=1;arcSize=12;size=0.23;" vertex="1" parent="1">
          <mxGeometry x="614" y="840" width="186" height="60" as="geometry" />
        </mxCell>
        <mxCell id="1vQTXEbns9AJPjR3mxmp-45" style="edgeStyle=orthogonalEdgeStyle;rounded=0;orthogonalLoop=1;jettySize=auto;html=1;entryX=0.5;entryY=0;entryDx=0;entryDy=0;" edge="1" parent="1" source="1vQTXEbns9AJPjR3mxmp-28" target="1vQTXEbns9AJPjR3mxmp-44">
          <mxGeometry relative="1" as="geometry" />
        </mxCell>
        <mxCell id="1vQTXEbns9AJPjR3mxmp-51" style="edgeStyle=orthogonalEdgeStyle;rounded=0;orthogonalLoop=1;jettySize=auto;html=1;entryX=0.5;entryY=0;entryDx=0;entryDy=0;" edge="1" parent="1" source="1vQTXEbns9AJPjR3mxmp-28" target="1vQTXEbns9AJPjR3mxmp-47">
          <mxGeometry relative="1" as="geometry" />
        </mxCell>
        <mxCell id="1vQTXEbns9AJPjR3mxmp-28" value="Is pressure below&amp;nbsp;&lt;div&gt;critical pressure?&lt;/div&gt;" style="rhombus;whiteSpace=wrap;html=1;" vertex="1" parent="1">
          <mxGeometry x="256" y="820" width="140" height="130" as="geometry" />
        </mxCell>
        <mxCell id="1vQTXEbns9AJPjR3mxmp-33" value="No" style="text;html=1;align=center;verticalAlign=middle;whiteSpace=wrap;rounded=0;" vertex="1" parent="1">
          <mxGeometry x="610" y="406" width="60" height="30" as="geometry" />
        </mxCell>
        <mxCell id="1vQTXEbns9AJPjR3mxmp-34" value="No" style="text;html=1;align=center;verticalAlign=middle;whiteSpace=wrap;rounded=0;" vertex="1" parent="1">
          <mxGeometry x="670" y="490" width="60" height="30" as="geometry" />
        </mxCell>
        <mxCell id="1vQTXEbns9AJPjR3mxmp-35" value="No" style="text;html=1;align=center;verticalAlign=middle;whiteSpace=wrap;rounded=0;" vertex="1" parent="1">
          <mxGeometry x="677" y="680" width="60" height="30" as="geometry" />
        </mxCell>
        <mxCell id="1vQTXEbns9AJPjR3mxmp-36" value="Yes" style="text;html=1;align=center;verticalAlign=middle;whiteSpace=wrap;rounded=0;" vertex="1" parent="1">
          <mxGeometry x="390" y="500" width="60" height="30" as="geometry" />
        </mxCell>
        <mxCell id="1vQTXEbns9AJPjR3mxmp-37" value="Yes" style="text;html=1;align=center;verticalAlign=middle;whiteSpace=wrap;rounded=0;" vertex="1" parent="1">
          <mxGeometry x="541" y="590" width="60" height="30" as="geometry" />
        </mxCell>
        <mxCell id="1vQTXEbns9AJPjR3mxmp-56" style="edgeStyle=orthogonalEdgeStyle;rounded=0;orthogonalLoop=1;jettySize=auto;html=1;entryX=0.5;entryY=0;entryDx=0;entryDy=0;" edge="1" parent="1" source="1vQTXEbns9AJPjR3mxmp-43" target="1vQTXEbns9AJPjR3mxmp-55">
          <mxGeometry relative="1" as="geometry" />
        </mxCell>
        <mxCell id="1vQTXEbns9AJPjR3mxmp-43" value="Print that it is below&amp;nbsp;&lt;div&gt;and how much to&amp;nbsp;&lt;/div&gt;&lt;div&gt;increase&amp;nbsp;&lt;span style=&quot;background-color: initial;&quot;&gt;it by&lt;/span&gt;&lt;/div&gt;" style="shape=parallelogram;html=1;strokeWidth=2;perimeter=parallelogramPerimeter;whiteSpace=wrap;rounded=1;arcSize=12;size=0.23;" vertex="1" parent="1">
          <mxGeometry x="10" y="1053" width="186" height="60" as="geometry" />
        </mxCell>
        <mxCell id="1vQTXEbns9AJPjR3mxmp-46" value="" style="edgeStyle=orthogonalEdgeStyle;rounded=0;orthogonalLoop=1;jettySize=auto;html=1;" edge="1" parent="1" source="1vQTXEbns9AJPjR3mxmp-44" target="1vQTXEbns9AJPjR3mxmp-43">
          <mxGeometry relative="1" as="geometry" />
        </mxCell>
        <mxCell id="1vQTXEbns9AJPjR3mxmp-44" value="Calculate how much to increase it by" style="rounded=1;whiteSpace=wrap;html=1;absoluteArcSize=1;arcSize=14;strokeWidth=2;" vertex="1" parent="1">
          <mxGeometry x="26" y="920" width="154" height="75" as="geometry" />
        </mxCell>
        <mxCell id="1vQTXEbns9AJPjR3mxmp-52" style="edgeStyle=orthogonalEdgeStyle;rounded=0;orthogonalLoop=1;jettySize=auto;html=1;entryX=0.5;entryY=0;entryDx=0;entryDy=0;" edge="1" parent="1" source="1vQTXEbns9AJPjR3mxmp-47" target="1vQTXEbns9AJPjR3mxmp-48">
          <mxGeometry relative="1" as="geometry" />
        </mxCell>
        <mxCell id="1vQTXEbns9AJPjR3mxmp-53" style="edgeStyle=orthogonalEdgeStyle;rounded=0;orthogonalLoop=1;jettySize=auto;html=1;" edge="1" parent="1" source="1vQTXEbns9AJPjR3mxmp-47" target="1vQTXEbns9AJPjR3mxmp-49">
          <mxGeometry relative="1" as="geometry" />
        </mxCell>
        <mxCell id="1vQTXEbns9AJPjR3mxmp-47" value="Is pressure&amp;nbsp;&lt;div&gt;below 95%&amp;nbsp;&lt;div&gt;of max spec?&lt;/div&gt;&lt;/div&gt;" style="rhombus;whiteSpace=wrap;html=1;" vertex="1" parent="1">
          <mxGeometry x="474" y="910" width="140" height="130" as="geometry" />
        </mxCell>
        <mxCell id="1vQTXEbns9AJPjR3mxmp-57" style="edgeStyle=orthogonalEdgeStyle;rounded=0;orthogonalLoop=1;jettySize=auto;html=1;entryX=0.5;entryY=0;entryDx=0;entryDy=0;" edge="1" parent="1" source="1vQTXEbns9AJPjR3mxmp-48" target="1vQTXEbns9AJPjR3mxmp-55">
          <mxGeometry relative="1" as="geometry" />
        </mxCell>
        <mxCell id="1vQTXEbns9AJPjR3mxmp-48" value="Print that it is good" style="shape=parallelogram;html=1;strokeWidth=2;perimeter=parallelogramPerimeter;whiteSpace=wrap;rounded=1;arcSize=12;size=0.23;" vertex="1" parent="1">
          <mxGeometry x="238" y="1010" width="186" height="60" as="geometry" />
        </mxCell>
        <mxCell id="1vQTXEbns9AJPjR3mxmp-54" value="" style="edgeStyle=orthogonalEdgeStyle;rounded=0;orthogonalLoop=1;jettySize=auto;html=1;" edge="1" parent="1" source="1vQTXEbns9AJPjR3mxmp-49" target="1vQTXEbns9AJPjR3mxmp-50">
          <mxGeometry relative="1" as="geometry" />
        </mxCell>
        <mxCell id="1vQTXEbns9AJPjR3mxmp-49" value="Calculate how much to decrease it by" style="rounded=1;whiteSpace=wrap;html=1;absoluteArcSize=1;arcSize=14;strokeWidth=2;" vertex="1" parent="1">
          <mxGeometry x="478" y="1080" width="154" height="75" as="geometry" />
        </mxCell>
        <mxCell id="1vQTXEbns9AJPjR3mxmp-58" style="edgeStyle=orthogonalEdgeStyle;rounded=0;orthogonalLoop=1;jettySize=auto;html=1;entryX=0.5;entryY=0;entryDx=0;entryDy=0;" edge="1" parent="1" source="1vQTXEbns9AJPjR3mxmp-50" target="1vQTXEbns9AJPjR3mxmp-55">
          <mxGeometry relative="1" as="geometry" />
        </mxCell>
        <mxCell id="1vQTXEbns9AJPjR3mxmp-50" value="Print that it is above&amp;nbsp;&lt;div&gt;and how much to&amp;nbsp;&lt;/div&gt;&lt;div&gt;decrease it by&lt;/div&gt;" style="shape=parallelogram;html=1;strokeWidth=2;perimeter=parallelogramPerimeter;whiteSpace=wrap;rounded=1;arcSize=12;size=0.23;" vertex="1" parent="1">
          <mxGeometry x="462" y="1190" width="186" height="60" as="geometry" />
        </mxCell>
        <mxCell id="1vQTXEbns9AJPjR3mxmp-55" value="End" style="ellipse;whiteSpace=wrap;html=1;" vertex="1" parent="1">
          <mxGeometry x="140" y="1240" width="150" height="80" as="geometry" />
        </mxCell>
        <mxCell id="1vQTXEbns9AJPjR3mxmp-62" style="edgeStyle=orthogonalEdgeStyle;rounded=0;orthogonalLoop=1;jettySize=auto;html=1;entryX=0.5;entryY=0;entryDx=0;entryDy=0;" edge="1" parent="1" source="1vQTXEbns9AJPjR3mxmp-60" target="1vQTXEbns9AJPjR3mxmp-61">
          <mxGeometry relative="1" as="geometry" />
        </mxCell>
        <mxCell id="1vQTXEbns9AJPjR3mxmp-66" style="edgeStyle=orthogonalEdgeStyle;rounded=0;orthogonalLoop=1;jettySize=auto;html=1;entryX=0;entryY=0.5;entryDx=0;entryDy=0;" edge="1" parent="1" source="1vQTXEbns9AJPjR3mxmp-60" target="1vQTXEbns9AJPjR3mxmp-63">
          <mxGeometry relative="1" as="geometry" />
        </mxCell>
        <mxCell id="1vQTXEbns9AJPjR3mxmp-60" value="Is temp&amp;nbsp;&lt;span style=&quot;background-color: initial;&quot;&gt;below 0&lt;/span&gt;" style="rhombus;whiteSpace=wrap;html=1;" vertex="1" parent="1">
          <mxGeometry x="56" y="75" width="140" height="130" as="geometry" />
        </mxCell>
        <mxCell id="1vQTXEbns9AJPjR3mxmp-68" style="edgeStyle=orthogonalEdgeStyle;rounded=0;orthogonalLoop=1;jettySize=auto;html=1;entryX=0;entryY=0.5;entryDx=0;entryDy=0;" edge="1" parent="1" source="1vQTXEbns9AJPjR3mxmp-61" target="1vQTXEbns9AJPjR3mxmp-67">
          <mxGeometry relative="1" as="geometry" />
        </mxCell>
        <mxCell id="1vQTXEbns9AJPjR3mxmp-74" value="" style="edgeStyle=orthogonalEdgeStyle;rounded=0;orthogonalLoop=1;jettySize=auto;html=1;" edge="1" parent="1" source="1vQTXEbns9AJPjR3mxmp-61" target="1vQTXEbns9AJPjR3mxmp-73">
          <mxGeometry relative="1" as="geometry" />
        </mxCell>
        <mxCell id="1vQTXEbns9AJPjR3mxmp-61" value="Is pressure below 0" style="rhombus;whiteSpace=wrap;html=1;" vertex="1" parent="1">
          <mxGeometry x="10" y="240" width="140" height="130" as="geometry" />
        </mxCell>
        <mxCell id="1vQTXEbns9AJPjR3mxmp-72" style="edgeStyle=orthogonalEdgeStyle;rounded=0;orthogonalLoop=1;jettySize=auto;html=1;entryX=1;entryY=0.5;entryDx=0;entryDy=0;" edge="1" parent="1" source="1vQTXEbns9AJPjR3mxmp-63" target="1vQTXEbns9AJPjR3mxmp-69">
          <mxGeometry relative="1" as="geometry" />
        </mxCell>
        <mxCell id="1vQTXEbns9AJPjR3mxmp-63" value="Print error" style="shape=parallelogram;html=1;strokeWidth=2;perimeter=parallelogramPerimeter;whiteSpace=wrap;rounded=1;arcSize=12;size=0.23;" vertex="1" parent="1">
          <mxGeometry x="272" y="145" width="186" height="60" as="geometry" />
        </mxCell>
        <mxCell id="1vQTXEbns9AJPjR3mxmp-71" style="edgeStyle=orthogonalEdgeStyle;rounded=0;orthogonalLoop=1;jettySize=auto;html=1;entryX=0.5;entryY=0;entryDx=0;entryDy=0;" edge="1" parent="1" source="1vQTXEbns9AJPjR3mxmp-67" target="1vQTXEbns9AJPjR3mxmp-69">
          <mxGeometry relative="1" as="geometry" />
        </mxCell>
        <mxCell id="1vQTXEbns9AJPjR3mxmp-67" value="Print error" style="shape=parallelogram;html=1;strokeWidth=2;perimeter=parallelogramPerimeter;whiteSpace=wrap;rounded=1;arcSize=12;size=0.23;" vertex="1" parent="1">
          <mxGeometry x="170" y="250" width="186" height="60" as="geometry" />
        </mxCell>
        <mxCell id="1vQTXEbns9AJPjR3mxmp-69" value="End" style="ellipse;whiteSpace=wrap;html=1;" vertex="1" parent="1">
          <mxGeometry x="188" y="340" width="150" height="80" as="geometry" />
        </mxCell>
        <mxCell id="1vQTXEbns9AJPjR3mxmp-75" style="edgeStyle=orthogonalEdgeStyle;rounded=0;orthogonalLoop=1;jettySize=auto;html=1;entryX=0.5;entryY=1;entryDx=0;entryDy=0;" edge="1" parent="1" source="1vQTXEbns9AJPjR3mxmp-73" target="1vQTXEbns9AJPjR3mxmp-69">
          <mxGeometry relative="1" as="geometry" />
        </mxCell>
        <mxCell id="1vQTXEbns9AJPjR3mxmp-73" value="Check Status&amp;nbsp;" style="rounded=1;whiteSpace=wrap;html=1;absoluteArcSize=1;arcSize=14;strokeWidth=2;" vertex="1" parent="1">
          <mxGeometry x="16" y="400" width="154" height="75" as="geometry" />
        </mxCell>
      </root>
    </mxGraphModel>
  </diagram>
</mxfile>
